<mxfile host="app.diagrams.net" modified="2022-03-14T08:48:58.383Z" agent="5.0 (Macintosh; Intel Mac OS X 10_15_7) AppleWebKit/537.36 (KHTML, like Gecko) Chrome/98.0.4758.109 Safari/537.36" etag="kaYcQFgeTPfKFXoHEqsr" version="16.6.5" type="github" pages="2">
  <diagram id="EyusghNpJcNrQ52RG8Q_" name="第 1 页">
    <mxGraphModel dx="1298" dy="745" grid="1" gridSize="10" guides="1" tooltips="1" connect="1" arrows="1" fold="1" page="1" pageScale="1" pageWidth="827" pageHeight="1169" math="0" shadow="0">
      <root>
        <mxCell id="jMZ1HtvIT3VSp8QgJuhi-0" />
        <mxCell id="jMZ1HtvIT3VSp8QgJuhi-1" parent="jMZ1HtvIT3VSp8QgJuhi-0" />
        <mxCell id="5CnfgfEM716WWL4R-b0I-0" value="thermal_zone_device" style="swimlane;fontStyle=1;align=center;verticalAlign=top;childLayout=stackLayout;horizontal=1;startSize=26;horizontalStack=0;resizeParent=1;resizeParentMax=0;resizeLast=0;collapsible=1;marginBottom=0;fontColor=#000000;" vertex="1" parent="jMZ1HtvIT3VSp8QgJuhi-1">
          <mxGeometry x="60" y="106" width="230" height="86" as="geometry" />
        </mxCell>
        <mxCell id="5CnfgfEM716WWL4R-b0I-1" value="struct thermal_zone_device_ops *ops;" style="text;strokeColor=none;fillColor=none;align=left;verticalAlign=top;spacingLeft=4;spacingRight=4;overflow=hidden;rotatable=0;points=[[0,0.5],[1,0.5]];portConstraint=eastwest;fontColor=#000000;" vertex="1" parent="5CnfgfEM716WWL4R-b0I-0">
          <mxGeometry y="26" width="230" height="26" as="geometry" />
        </mxCell>
        <mxCell id="5CnfgfEM716WWL4R-b0I-2" value="" style="line;strokeWidth=1;fillColor=none;align=left;verticalAlign=middle;spacingTop=-1;spacingLeft=3;spacingRight=3;rotatable=0;labelPosition=right;points=[];portConstraint=eastwest;rounded=0;sketch=0;fontColor=#000000;" vertex="1" parent="5CnfgfEM716WWL4R-b0I-0">
          <mxGeometry y="52" width="230" height="8" as="geometry" />
        </mxCell>
        <mxCell id="5CnfgfEM716WWL4R-b0I-3" value="struct thermal_governor *governor;" style="text;strokeColor=none;fillColor=none;align=left;verticalAlign=top;spacingLeft=4;spacingRight=4;overflow=hidden;rotatable=0;points=[[0,0.5],[1,0.5]];portConstraint=eastwest;fontColor=#000000;" vertex="1" parent="5CnfgfEM716WWL4R-b0I-0">
          <mxGeometry y="60" width="230" height="26" as="geometry" />
        </mxCell>
        <mxCell id="5CnfgfEM716WWL4R-b0I-4" value="thermal_zone_device_ops" style="swimlane;fontStyle=1;align=center;verticalAlign=top;childLayout=stackLayout;horizontal=1;startSize=26;horizontalStack=0;resizeParent=1;resizeParentMax=0;resizeLast=0;collapsible=1;marginBottom=0;fontColor=#000000;" vertex="1" parent="jMZ1HtvIT3VSp8QgJuhi-1">
          <mxGeometry x="420" y="20" width="160" height="120" as="geometry" />
        </mxCell>
        <mxCell id="5CnfgfEM716WWL4R-b0I-5" value="bind()" style="text;strokeColor=none;fillColor=none;align=left;verticalAlign=top;spacingLeft=4;spacingRight=4;overflow=hidden;rotatable=0;points=[[0,0.5],[1,0.5]];portConstraint=eastwest;rounded=0;sketch=0;fontColor=#000000;" vertex="1" parent="5CnfgfEM716WWL4R-b0I-4">
          <mxGeometry y="26" width="160" height="26" as="geometry" />
        </mxCell>
        <mxCell id="5CnfgfEM716WWL4R-b0I-6" value="" style="line;strokeWidth=1;fillColor=none;align=left;verticalAlign=middle;spacingTop=-1;spacingLeft=3;spacingRight=3;rotatable=0;labelPosition=right;points=[];portConstraint=eastwest;rounded=0;sketch=0;fontColor=#000000;" vertex="1" parent="5CnfgfEM716WWL4R-b0I-4">
          <mxGeometry y="52" width="160" height="8" as="geometry" />
        </mxCell>
        <mxCell id="5CnfgfEM716WWL4R-b0I-7" value="get_temp()" style="text;strokeColor=none;fillColor=none;align=left;verticalAlign=top;spacingLeft=4;spacingRight=4;overflow=hidden;rotatable=0;points=[[0,0.5],[1,0.5]];portConstraint=eastwest;fontColor=#000000;" vertex="1" parent="5CnfgfEM716WWL4R-b0I-4">
          <mxGeometry y="60" width="160" height="26" as="geometry" />
        </mxCell>
        <mxCell id="5CnfgfEM716WWL4R-b0I-8" value="" style="line;strokeWidth=1;fillColor=none;align=left;verticalAlign=middle;spacingTop=-1;spacingLeft=3;spacingRight=3;rotatable=0;labelPosition=right;points=[];portConstraint=eastwest;fontColor=#000000;" vertex="1" parent="5CnfgfEM716WWL4R-b0I-4">
          <mxGeometry y="86" width="160" height="8" as="geometry" />
        </mxCell>
        <mxCell id="5CnfgfEM716WWL4R-b0I-9" value="notify()" style="text;strokeColor=none;fillColor=none;align=left;verticalAlign=top;spacingLeft=4;spacingRight=4;overflow=hidden;rotatable=0;points=[[0,0.5],[1,0.5]];portConstraint=eastwest;fontColor=#000000;" vertex="1" parent="5CnfgfEM716WWL4R-b0I-4">
          <mxGeometry y="94" width="160" height="26" as="geometry" />
        </mxCell>
        <mxCell id="5CnfgfEM716WWL4R-b0I-10" value="thermal_cooling_device" style="swimlane;fontStyle=1;align=center;verticalAlign=top;childLayout=stackLayout;horizontal=1;startSize=26;horizontalStack=0;resizeParent=1;resizeParentMax=0;resizeLast=0;collapsible=1;marginBottom=0;fontColor=#000000;" vertex="1" parent="jMZ1HtvIT3VSp8QgJuhi-1">
          <mxGeometry x="70" y="316" width="160" height="86" as="geometry" />
        </mxCell>
        <mxCell id="5CnfgfEM716WWL4R-b0I-11" value="struct thermal_cooling_device_ops *ops;" style="text;strokeColor=none;fillColor=none;align=left;verticalAlign=top;spacingLeft=4;spacingRight=4;overflow=hidden;rotatable=0;points=[[0,0.5],[1,0.5]];portConstraint=eastwest;fontColor=#000000;" vertex="1" parent="5CnfgfEM716WWL4R-b0I-10">
          <mxGeometry y="26" width="160" height="26" as="geometry" />
        </mxCell>
        <mxCell id="5CnfgfEM716WWL4R-b0I-12" value="" style="line;strokeWidth=1;fillColor=none;align=left;verticalAlign=middle;spacingTop=-1;spacingLeft=3;spacingRight=3;rotatable=0;labelPosition=right;points=[];portConstraint=eastwest;fontColor=#000000;" vertex="1" parent="5CnfgfEM716WWL4R-b0I-10">
          <mxGeometry y="52" width="160" height="8" as="geometry" />
        </mxCell>
        <mxCell id="5CnfgfEM716WWL4R-b0I-13" value="+ method(type): type" style="text;strokeColor=none;fillColor=none;align=left;verticalAlign=top;spacingLeft=4;spacingRight=4;overflow=hidden;rotatable=0;points=[[0,0.5],[1,0.5]];portConstraint=eastwest;fontColor=#000000;" vertex="1" parent="5CnfgfEM716WWL4R-b0I-10">
          <mxGeometry y="60" width="160" height="26" as="geometry" />
        </mxCell>
        <mxCell id="5CnfgfEM716WWL4R-b0I-14" value="thermal_cooling_device_ops" style="swimlane;fontStyle=1;align=center;verticalAlign=top;childLayout=stackLayout;horizontal=1;startSize=26;horizontalStack=0;resizeParent=1;resizeParentMax=0;resizeLast=0;collapsible=1;marginBottom=0;fontColor=#000000;" vertex="1" parent="jMZ1HtvIT3VSp8QgJuhi-1">
          <mxGeometry x="390" y="312" width="190" height="86" as="geometry" />
        </mxCell>
        <mxCell id="5CnfgfEM716WWL4R-b0I-15" value="get_cur_state()" style="text;strokeColor=none;fillColor=none;align=left;verticalAlign=top;spacingLeft=4;spacingRight=4;overflow=hidden;rotatable=0;points=[[0,0.5],[1,0.5]];portConstraint=eastwest;fontColor=#000000;" vertex="1" parent="5CnfgfEM716WWL4R-b0I-14">
          <mxGeometry y="26" width="190" height="26" as="geometry" />
        </mxCell>
        <mxCell id="5CnfgfEM716WWL4R-b0I-16" value="" style="line;strokeWidth=1;fillColor=none;align=left;verticalAlign=middle;spacingTop=-1;spacingLeft=3;spacingRight=3;rotatable=0;labelPosition=right;points=[];portConstraint=eastwest;fontColor=#000000;" vertex="1" parent="5CnfgfEM716WWL4R-b0I-14">
          <mxGeometry y="52" width="190" height="8" as="geometry" />
        </mxCell>
        <mxCell id="5CnfgfEM716WWL4R-b0I-17" value="set_cur_state()" style="text;strokeColor=none;fillColor=none;align=left;verticalAlign=top;spacingLeft=4;spacingRight=4;overflow=hidden;rotatable=0;points=[[0,0.5],[1,0.5]];portConstraint=eastwest;fontColor=#000000;" vertex="1" parent="5CnfgfEM716WWL4R-b0I-14">
          <mxGeometry y="60" width="190" height="26" as="geometry" />
        </mxCell>
        <mxCell id="5CnfgfEM716WWL4R-b0I-18" value="thermal_governor" style="swimlane;fontStyle=1;align=center;verticalAlign=top;childLayout=stackLayout;horizontal=1;startSize=26;horizontalStack=0;resizeParent=1;resizeParentMax=0;resizeLast=0;collapsible=1;marginBottom=0;fontColor=#000000;" vertex="1" parent="jMZ1HtvIT3VSp8QgJuhi-1">
          <mxGeometry x="420" y="184" width="160" height="86" as="geometry" />
        </mxCell>
        <mxCell id="5CnfgfEM716WWL4R-b0I-19" value="bind_to_tz()" style="text;strokeColor=none;fillColor=none;align=left;verticalAlign=top;spacingLeft=4;spacingRight=4;overflow=hidden;rotatable=0;points=[[0,0.5],[1,0.5]];portConstraint=eastwest;fontColor=#000000;" vertex="1" parent="5CnfgfEM716WWL4R-b0I-18">
          <mxGeometry y="26" width="160" height="26" as="geometry" />
        </mxCell>
        <mxCell id="5CnfgfEM716WWL4R-b0I-20" value="" style="line;strokeWidth=1;fillColor=none;align=left;verticalAlign=middle;spacingTop=-1;spacingLeft=3;spacingRight=3;rotatable=0;labelPosition=right;points=[];portConstraint=eastwest;fontColor=#000000;" vertex="1" parent="5CnfgfEM716WWL4R-b0I-18">
          <mxGeometry y="52" width="160" height="8" as="geometry" />
        </mxCell>
        <mxCell id="5CnfgfEM716WWL4R-b0I-21" value="throttle()" style="text;strokeColor=none;fillColor=none;align=left;verticalAlign=top;spacingLeft=4;spacingRight=4;overflow=hidden;rotatable=0;points=[[0,0.5],[1,0.5]];portConstraint=eastwest;fontColor=#000000;" vertex="1" parent="5CnfgfEM716WWL4R-b0I-18">
          <mxGeometry y="60" width="160" height="26" as="geometry" />
        </mxCell>
        <mxCell id="5CnfgfEM716WWL4R-b0I-22" style="edgeStyle=orthogonalEdgeStyle;rounded=0;orthogonalLoop=1;jettySize=auto;html=1;exitX=1;exitY=0.5;exitDx=0;exitDy=0;entryX=0;entryY=0.128;entryDx=0;entryDy=0;entryPerimeter=0;fontColor=#000000;" edge="1" parent="jMZ1HtvIT3VSp8QgJuhi-1" source="5CnfgfEM716WWL4R-b0I-1" target="5CnfgfEM716WWL4R-b0I-4">
          <mxGeometry relative="1" as="geometry" />
        </mxCell>
        <mxCell id="5CnfgfEM716WWL4R-b0I-23" style="edgeStyle=orthogonalEdgeStyle;rounded=0;orthogonalLoop=1;jettySize=auto;html=1;exitX=1;exitY=0.5;exitDx=0;exitDy=0;entryX=-0.006;entryY=0.14;entryDx=0;entryDy=0;entryPerimeter=0;fontColor=#000000;" edge="1" parent="jMZ1HtvIT3VSp8QgJuhi-1" source="5CnfgfEM716WWL4R-b0I-11" target="5CnfgfEM716WWL4R-b0I-14">
          <mxGeometry relative="1" as="geometry" />
        </mxCell>
        <mxCell id="5CnfgfEM716WWL4R-b0I-24" style="edgeStyle=orthogonalEdgeStyle;rounded=0;orthogonalLoop=1;jettySize=auto;html=1;exitX=1;exitY=0.5;exitDx=0;exitDy=0;entryX=-0.025;entryY=0.174;entryDx=0;entryDy=0;entryPerimeter=0;fontColor=#000000;" edge="1" parent="jMZ1HtvIT3VSp8QgJuhi-1" source="5CnfgfEM716WWL4R-b0I-3" target="5CnfgfEM716WWL4R-b0I-18">
          <mxGeometry relative="1" as="geometry" />
        </mxCell>
        <mxCell id="5CnfgfEM716WWL4R-b0I-25" value="" style="rounded=0;whiteSpace=wrap;html=1;sketch=0;strokeColor=#000000;" vertex="1" parent="jMZ1HtvIT3VSp8QgJuhi-1">
          <mxGeometry x="100" y="490" width="450" height="280" as="geometry" />
        </mxCell>
        <mxCell id="5CnfgfEM716WWL4R-b0I-26" value="core&lt;br&gt;&lt;font style=&quot;font-size: 12px&quot;&gt;(governor/zone/cooling)&lt;/font&gt;" style="rounded=0;whiteSpace=wrap;html=1;sketch=0;fontSize=16;strokeColor=#000000;" vertex="1" parent="jMZ1HtvIT3VSp8QgJuhi-1">
          <mxGeometry x="160" y="670" width="320" height="60" as="geometry" />
        </mxCell>
        <mxCell id="5CnfgfEM716WWL4R-b0I-27" value="&lt;font style=&quot;font-size: 16px&quot;&gt;governor&lt;/font&gt;&lt;br&gt;(&lt;span style=&quot;background-color: rgb(255 , 255 , 255) ; font-family: &amp;#34;menlo&amp;#34; , &amp;#34;monaco&amp;#34; , &amp;#34;courier new&amp;#34; , monospace&quot;&gt;fair_share/&lt;/span&gt;&lt;span style=&quot;background-color: rgb(255 , 255 , 255) ; font-family: &amp;#34;menlo&amp;#34; , &amp;#34;monaco&amp;#34; , &amp;#34;courier new&amp;#34; , monospace&quot;&gt;gov_bang_bang/&lt;br&gt;&lt;/span&gt;&lt;span style=&quot;background-color: rgb(255 , 255 , 255) ; font-family: &amp;#34;menlo&amp;#34; , &amp;#34;monaco&amp;#34; , &amp;#34;courier new&amp;#34; , monospace&quot;&gt;step_wise/&lt;/span&gt;&lt;span style=&quot;background-color: rgb(255 , 255 , 255) ; font-family: &amp;#34;menlo&amp;#34; , &amp;#34;monaco&amp;#34; , &amp;#34;courier new&amp;#34; , monospace&quot;&gt;user_space/&lt;br&gt;&lt;/span&gt;&lt;span style=&quot;background-color: rgb(255 , 255 , 255) ; font-family: &amp;#34;menlo&amp;#34; , &amp;#34;monaco&amp;#34; , &amp;#34;courier new&amp;#34; , monospace&quot;&gt;power_allocator&lt;/span&gt;&lt;span&gt;)&lt;/span&gt;" style="rounded=0;whiteSpace=wrap;html=1;sketch=0;strokeColor=#000000;" vertex="1" parent="jMZ1HtvIT3VSp8QgJuhi-1">
          <mxGeometry x="350" y="530" width="180" height="90" as="geometry" />
        </mxCell>
        <mxCell id="5CnfgfEM716WWL4R-b0I-28" value="platform thermal driver" style="rounded=0;whiteSpace=wrap;html=1;sketch=0;strokeColor=#000000;" vertex="1" parent="jMZ1HtvIT3VSp8QgJuhi-1">
          <mxGeometry x="100" y="790" width="450" height="50" as="geometry" />
        </mxCell>
        <mxCell id="5CnfgfEM716WWL4R-b0I-29" value="&lt;font&gt;&lt;font style=&quot;font-size: 16px&quot;&gt;cooling devices&lt;/font&gt;&lt;br&gt;&lt;span style=&quot;font-size: 12px&quot;&gt;(cpufreq cooling/clock cooling/&lt;/span&gt;&lt;br&gt;&lt;span style=&quot;font-size: 12px&quot;&gt;devfreq cooling)&lt;/span&gt;&lt;/font&gt;" style="rounded=0;whiteSpace=wrap;html=1;sketch=0;fontSize=16;" vertex="1" parent="jMZ1HtvIT3VSp8QgJuhi-1">
          <mxGeometry x="130" y="540" width="176" height="70" as="geometry" />
        </mxCell>
        <mxCell id="5CnfgfEM716WWL4R-b0I-30" value="" style="endArrow=classic;startArrow=classic;html=1;rounded=1;sketch=0;fontSize=16;fontColor=#000000;strokeColor=#000000;fillColor=#B2C9AB;curved=0;" edge="1" parent="jMZ1HtvIT3VSp8QgJuhi-1">
          <mxGeometry width="50" height="50" relative="1" as="geometry">
            <mxPoint x="200" y="670" as="sourcePoint" />
            <mxPoint x="200" y="610" as="targetPoint" />
          </mxGeometry>
        </mxCell>
        <mxCell id="5CnfgfEM716WWL4R-b0I-31" value="" style="endArrow=classic;startArrow=classic;html=1;rounded=1;sketch=0;fontSize=16;fontColor=#000000;strokeColor=#000000;fillColor=#B2C9AB;curved=0;" edge="1" parent="jMZ1HtvIT3VSp8QgJuhi-1">
          <mxGeometry width="50" height="50" relative="1" as="geometry">
            <mxPoint x="420" y="670" as="sourcePoint" />
            <mxPoint x="420" y="620" as="targetPoint" />
          </mxGeometry>
        </mxCell>
        <mxCell id="5CnfgfEM716WWL4R-b0I-32" value="" style="endArrow=classic;startArrow=classic;html=1;rounded=1;sketch=0;fontSize=16;fontColor=#000000;strokeColor=#000000;fillColor=#B2C9AB;curved=0;" edge="1" parent="jMZ1HtvIT3VSp8QgJuhi-1">
          <mxGeometry width="50" height="50" relative="1" as="geometry">
            <mxPoint x="306" y="790" as="sourcePoint" />
            <mxPoint x="306" y="730" as="targetPoint" />
          </mxGeometry>
        </mxCell>
      </root>
    </mxGraphModel>
  </diagram>
  <diagram id="SV5lvaXnBjnve2PMBQKO" name="第 2 页">
    <mxGraphModel dx="1298" dy="745" grid="1" gridSize="10" guides="1" tooltips="1" connect="1" arrows="1" fold="1" page="1" pageScale="1" pageWidth="827" pageHeight="1169" math="0" shadow="0">
      <root>
        <mxCell id="i_sJm_hCALOnc1Xjkr22-0" />
        <mxCell id="i_sJm_hCALOnc1Xjkr22-1" parent="i_sJm_hCALOnc1Xjkr22-0" />
        <mxCell id="PR9g5M-_RGSBmnKTxWqd-0" value="" style="edgeStyle=orthogonalEdgeStyle;rounded=0;orthogonalLoop=1;jettySize=auto;html=1;" edge="1" parent="i_sJm_hCALOnc1Xjkr22-1" source="PR9g5M-_RGSBmnKTxWqd-1" target="PR9g5M-_RGSBmnKTxWqd-18">
          <mxGeometry relative="1" as="geometry" />
        </mxCell>
        <mxCell id="PR9g5M-_RGSBmnKTxWqd-1" value="thermal_init" style="strokeWidth=2;html=1;shape=mxgraph.flowchart.start_2;whiteSpace=wrap;rounded=0;" vertex="1" parent="i_sJm_hCALOnc1Xjkr22-1">
          <mxGeometry x="80" y="610" width="100" height="60" as="geometry" />
        </mxCell>
        <mxCell id="PR9g5M-_RGSBmnKTxWqd-2" value="" style="edgeStyle=orthogonalEdgeStyle;rounded=0;orthogonalLoop=1;jettySize=auto;html=1;" edge="1" parent="i_sJm_hCALOnc1Xjkr22-1" source="PR9g5M-_RGSBmnKTxWqd-3" target="PR9g5M-_RGSBmnKTxWqd-10">
          <mxGeometry relative="1" as="geometry" />
        </mxCell>
        <mxCell id="PR9g5M-_RGSBmnKTxWqd-3" value="&lt;div style=&quot;background-color: rgb(255 , 255 , 255) ; font-family: &amp;#34;menlo&amp;#34; , &amp;#34;monaco&amp;#34; , &amp;#34;courier new&amp;#34; , monospace ; line-height: 18px&quot;&gt;handle_thermal_trip&lt;/div&gt;" style="whiteSpace=wrap;html=1;rounded=0;arcSize=14;strokeWidth=2;" vertex="1" parent="i_sJm_hCALOnc1Xjkr22-1">
          <mxGeometry x="525" y="665" width="120" height="60" as="geometry" />
        </mxCell>
        <mxCell id="PR9g5M-_RGSBmnKTxWqd-4" style="edgeStyle=orthogonalEdgeStyle;orthogonalLoop=1;jettySize=auto;html=1;exitX=1;exitY=0.5;exitDx=0;exitDy=0;entryX=0.5;entryY=0;entryDx=0;entryDy=0;" edge="1" parent="i_sJm_hCALOnc1Xjkr22-1" source="PR9g5M-_RGSBmnKTxWqd-5" target="PR9g5M-_RGSBmnKTxWqd-16">
          <mxGeometry relative="1" as="geometry">
            <Array as="points">
              <mxPoint x="810" y="1020" />
              <mxPoint x="810" y="560" />
              <mxPoint x="585" y="560" />
            </Array>
          </mxGeometry>
        </mxCell>
        <mxCell id="PR9g5M-_RGSBmnKTxWqd-5" value="monitor_thermal_zone" style="whiteSpace=wrap;html=1;rounded=0;arcSize=14;strokeWidth=2;" vertex="1" parent="i_sJm_hCALOnc1Xjkr22-1">
          <mxGeometry x="530" y="990" width="120" height="60" as="geometry" />
        </mxCell>
        <mxCell id="PR9g5M-_RGSBmnKTxWqd-6" style="edgeStyle=orthogonalEdgeStyle;rounded=1;orthogonalLoop=1;jettySize=auto;html=1;exitX=1;exitY=0.5;exitDx=0;exitDy=0;fontColor=#66B2FF;strokeWidth=1;" edge="1" parent="i_sJm_hCALOnc1Xjkr22-1" source="PR9g5M-_RGSBmnKTxWqd-10">
          <mxGeometry relative="1" as="geometry">
            <mxPoint x="707" y="856.181818181818" as="targetPoint" />
          </mxGeometry>
        </mxCell>
        <mxCell id="PR9g5M-_RGSBmnKTxWqd-7" value="Y" style="edgeLabel;html=1;align=center;verticalAlign=middle;resizable=0;points=[];fontColor=#66B2FF;" vertex="1" connectable="0" parent="PR9g5M-_RGSBmnKTxWqd-6">
          <mxGeometry x="-0.1668" relative="1" as="geometry">
            <mxPoint as="offset" />
          </mxGeometry>
        </mxCell>
        <mxCell id="PR9g5M-_RGSBmnKTxWqd-8" style="edgeStyle=orthogonalEdgeStyle;rounded=1;orthogonalLoop=1;jettySize=auto;html=1;exitX=0;exitY=0.5;exitDx=0;exitDy=0;fontColor=#66B2FF;strokeWidth=1;" edge="1" parent="i_sJm_hCALOnc1Xjkr22-1" source="PR9g5M-_RGSBmnKTxWqd-10" target="PR9g5M-_RGSBmnKTxWqd-14">
          <mxGeometry relative="1" as="geometry" />
        </mxCell>
        <mxCell id="PR9g5M-_RGSBmnKTxWqd-9" value="N" style="edgeLabel;html=1;align=center;verticalAlign=middle;resizable=0;points=[];fontColor=#66B2FF;" vertex="1" connectable="0" parent="PR9g5M-_RGSBmnKTxWqd-8">
          <mxGeometry x="-0.4246" relative="1" as="geometry">
            <mxPoint as="offset" />
          </mxGeometry>
        </mxCell>
        <mxCell id="PR9g5M-_RGSBmnKTxWqd-10" value="&lt;div style=&quot;background-color: rgb(255 , 255 , 255) ; font-family: &amp;#34;menlo&amp;#34; , &amp;#34;monaco&amp;#34; , &amp;#34;courier new&amp;#34; , monospace ; line-height: 18px&quot;&gt;THERMAL_TRIP_CRITICAL&lt;/div&gt;&lt;div style=&quot;background-color: rgb(255 , 255 , 255) ; font-family: &amp;#34;menlo&amp;#34; , &amp;#34;monaco&amp;#34; , &amp;#34;courier new&amp;#34; , monospace ; line-height: 18px&quot;&gt;&lt;div style=&quot;line-height: 18px&quot;&gt;THERMAL_TRIP_HOT&lt;/div&gt;&lt;/div&gt;" style="rhombus;whiteSpace=wrap;html=1;rounded=0;arcSize=14;strokeWidth=2;" vertex="1" parent="i_sJm_hCALOnc1Xjkr22-1">
          <mxGeometry x="545" y="745" width="80" height="80" as="geometry" />
        </mxCell>
        <mxCell id="PR9g5M-_RGSBmnKTxWqd-11" style="edgeStyle=orthogonalEdgeStyle;rounded=1;orthogonalLoop=1;jettySize=auto;html=1;exitX=0.5;exitY=1;exitDx=0;exitDy=0;entryX=0.5;entryY=0;entryDx=0;entryDy=0;fontColor=#66B2FF;strokeWidth=1;" edge="1" parent="i_sJm_hCALOnc1Xjkr22-1" source="PR9g5M-_RGSBmnKTxWqd-12" target="PR9g5M-_RGSBmnKTxWqd-5">
          <mxGeometry relative="1" as="geometry">
            <Array as="points">
              <mxPoint x="705" y="961" />
              <mxPoint x="590" y="961" />
            </Array>
          </mxGeometry>
        </mxCell>
        <mxCell id="PR9g5M-_RGSBmnKTxWqd-12" value="&lt;div style=&quot;background-color: rgb(255 , 255 , 255) ; font-family: &amp;#34;menlo&amp;#34; , &amp;#34;monaco&amp;#34; , &amp;#34;courier new&amp;#34; , monospace ; line-height: 18px&quot;&gt;handle_critical_trips&lt;/div&gt;" style="whiteSpace=wrap;html=1;rounded=0;arcSize=14;strokeWidth=2;" vertex="1" parent="i_sJm_hCALOnc1Xjkr22-1">
          <mxGeometry x="645" y="860" width="120" height="60" as="geometry" />
        </mxCell>
        <mxCell id="PR9g5M-_RGSBmnKTxWqd-13" style="edgeStyle=orthogonalEdgeStyle;rounded=1;orthogonalLoop=1;jettySize=auto;html=1;exitX=0.5;exitY=1;exitDx=0;exitDy=0;entryX=0.5;entryY=0;entryDx=0;entryDy=0;fontColor=#66B2FF;strokeWidth=1;" edge="1" parent="i_sJm_hCALOnc1Xjkr22-1" source="PR9g5M-_RGSBmnKTxWqd-14" target="PR9g5M-_RGSBmnKTxWqd-5">
          <mxGeometry relative="1" as="geometry" />
        </mxCell>
        <mxCell id="PR9g5M-_RGSBmnKTxWqd-14" value="&lt;div style=&quot;background-color: rgb(255 , 255 , 255) ; font-family: &amp;#34;menlo&amp;#34; , &amp;#34;monaco&amp;#34; , &amp;#34;courier new&amp;#34; , monospace ; line-height: 18px&quot;&gt;handle_non_critical_trips&lt;/div&gt;" style="whiteSpace=wrap;html=1;rounded=0;arcSize=14;strokeWidth=2;" vertex="1" parent="i_sJm_hCALOnc1Xjkr22-1">
          <mxGeometry x="400" y="870" width="120" height="60" as="geometry" />
        </mxCell>
        <mxCell id="PR9g5M-_RGSBmnKTxWqd-15" style="edgeStyle=orthogonalEdgeStyle;rounded=0;orthogonalLoop=1;jettySize=auto;html=1;entryX=0.5;entryY=0;entryDx=0;entryDy=0;" edge="1" parent="i_sJm_hCALOnc1Xjkr22-1" source="PR9g5M-_RGSBmnKTxWqd-16" target="PR9g5M-_RGSBmnKTxWqd-3">
          <mxGeometry relative="1" as="geometry" />
        </mxCell>
        <mxCell id="PR9g5M-_RGSBmnKTxWqd-16" value="&lt;div style=&quot;background-color: rgb(255 , 255 , 255) ; font-family: &amp;#34;menlo&amp;#34; , &amp;#34;monaco&amp;#34; , &amp;#34;courier new&amp;#34; , monospace ; line-height: 18px&quot;&gt;thermal_zone_device_update&lt;/div&gt;" style="rounded=0;whiteSpace=wrap;html=1;absoluteArcSize=1;arcSize=14;strokeWidth=2;" vertex="1" parent="i_sJm_hCALOnc1Xjkr22-1">
          <mxGeometry x="520" y="580" width="130" height="60" as="geometry" />
        </mxCell>
        <mxCell id="PR9g5M-_RGSBmnKTxWqd-17" value="" style="edgeStyle=orthogonalEdgeStyle;rounded=0;orthogonalLoop=1;jettySize=auto;html=1;" edge="1" parent="i_sJm_hCALOnc1Xjkr22-1" source="PR9g5M-_RGSBmnKTxWqd-18" target="PR9g5M-_RGSBmnKTxWqd-20">
          <mxGeometry relative="1" as="geometry" />
        </mxCell>
        <mxCell id="PR9g5M-_RGSBmnKTxWqd-18" value="&lt;div style=&quot;background-color: rgb(255 , 255 , 255) ; font-family: &amp;#34;menlo&amp;#34; , &amp;#34;monaco&amp;#34; , &amp;#34;courier new&amp;#34; , monospace ; line-height: 18px&quot;&gt;thermal_register_governors&lt;/div&gt;" style="whiteSpace=wrap;html=1;strokeWidth=2;rounded=0;" vertex="1" parent="i_sJm_hCALOnc1Xjkr22-1">
          <mxGeometry x="70" y="690" width="120" height="60" as="geometry" />
        </mxCell>
        <mxCell id="PR9g5M-_RGSBmnKTxWqd-19" value="" style="edgeStyle=orthogonalEdgeStyle;rounded=0;orthogonalLoop=1;jettySize=auto;html=1;" edge="1" parent="i_sJm_hCALOnc1Xjkr22-1" source="PR9g5M-_RGSBmnKTxWqd-20" target="PR9g5M-_RGSBmnKTxWqd-22">
          <mxGeometry relative="1" as="geometry" />
        </mxCell>
        <mxCell id="PR9g5M-_RGSBmnKTxWqd-20" value="&lt;div style=&quot;background-color: rgb(255 , 255 , 255) ; font-family: &amp;#34;menlo&amp;#34; , &amp;#34;monaco&amp;#34; , &amp;#34;courier new&amp;#34; , monospace ; line-height: 18px&quot;&gt;genetlink_init&lt;/div&gt;" style="whiteSpace=wrap;html=1;strokeWidth=2;rounded=0;" vertex="1" parent="i_sJm_hCALOnc1Xjkr22-1">
          <mxGeometry x="70" y="770" width="120" height="60" as="geometry" />
        </mxCell>
        <mxCell id="PR9g5M-_RGSBmnKTxWqd-21" value="" style="edgeStyle=orthogonalEdgeStyle;rounded=0;orthogonalLoop=1;jettySize=auto;html=1;" edge="1" parent="i_sJm_hCALOnc1Xjkr22-1" source="PR9g5M-_RGSBmnKTxWqd-22" target="PR9g5M-_RGSBmnKTxWqd-23">
          <mxGeometry relative="1" as="geometry" />
        </mxCell>
        <mxCell id="PR9g5M-_RGSBmnKTxWqd-22" value="&lt;div style=&quot;background-color: rgb(255 , 255 , 255) ; font-family: &amp;#34;menlo&amp;#34; , &amp;#34;monaco&amp;#34; , &amp;#34;courier new&amp;#34; , monospace ; line-height: 18px&quot;&gt;&lt;div style=&quot;font-family: &amp;#34;menlo&amp;#34; , &amp;#34;monaco&amp;#34; , &amp;#34;courier new&amp;#34; , monospace ; line-height: 18px&quot;&gt;of_parse_thermal_zones&lt;/div&gt;&lt;/div&gt;" style="whiteSpace=wrap;html=1;strokeWidth=2;rounded=0;" vertex="1" parent="i_sJm_hCALOnc1Xjkr22-1">
          <mxGeometry x="70" y="850" width="120" height="60" as="geometry" />
        </mxCell>
        <mxCell id="PR9g5M-_RGSBmnKTxWqd-23" value="&lt;div style=&quot;background-color: rgb(255 , 255 , 255) ; font-family: &amp;#34;menlo&amp;#34; , &amp;#34;monaco&amp;#34; , &amp;#34;courier new&amp;#34; , monospace ; line-height: 18px&quot;&gt;register_pm_notifier&lt;/div&gt;" style="whiteSpace=wrap;html=1;strokeWidth=2;rounded=0;" vertex="1" parent="i_sJm_hCALOnc1Xjkr22-1">
          <mxGeometry x="70" y="930" width="120" height="60" as="geometry" />
        </mxCell>
        <mxCell id="PR9g5M-_RGSBmnKTxWqd-24" value="&lt;div style=&quot;background-color: rgb(255 , 255 , 255) ; font-family: &amp;#34;menlo&amp;#34; , &amp;#34;monaco&amp;#34; , &amp;#34;courier new&amp;#34; , monospace ; line-height: 18px&quot;&gt;INIT_DELAYED_WORK&lt;/div&gt;" style="whiteSpace=wrap;html=1;rounded=0;" vertex="1" parent="i_sJm_hCALOnc1Xjkr22-1">
          <mxGeometry x="280" y="500" width="120" height="60" as="geometry" />
        </mxCell>
        <mxCell id="PR9g5M-_RGSBmnKTxWqd-25" style="edgeStyle=orthogonalEdgeStyle;rounded=0;orthogonalLoop=1;jettySize=auto;html=1;exitX=0.5;exitY=1;exitDx=0;exitDy=0;entryX=0.5;entryY=0;entryDx=0;entryDy=0;fontSize=12;" edge="1" parent="i_sJm_hCALOnc1Xjkr22-1" source="PR9g5M-_RGSBmnKTxWqd-26" target="PR9g5M-_RGSBmnKTxWqd-24">
          <mxGeometry relative="1" as="geometry" />
        </mxCell>
        <mxCell id="PR9g5M-_RGSBmnKTxWqd-26" value="&lt;div style=&quot;background-color: rgb(255 , 255 , 255) ; font-family: &amp;#34;menlo&amp;#34; , &amp;#34;monaco&amp;#34; , &amp;#34;courier new&amp;#34; , monospace ; line-height: 18px&quot;&gt;thermal_zone_device_register&lt;/div&gt;" style="whiteSpace=wrap;html=1;rounded=0;" vertex="1" parent="i_sJm_hCALOnc1Xjkr22-1">
          <mxGeometry x="280" y="420" width="120" height="60" as="geometry" />
        </mxCell>
        <mxCell id="PR9g5M-_RGSBmnKTxWqd-27" style="edgeStyle=orthogonalEdgeStyle;rounded=1;orthogonalLoop=1;jettySize=auto;html=1;fontColor=#66B2FF;strokeWidth=1;" edge="1" parent="i_sJm_hCALOnc1Xjkr22-1" source="PR9g5M-_RGSBmnKTxWqd-28" target="PR9g5M-_RGSBmnKTxWqd-26">
          <mxGeometry relative="1" as="geometry" />
        </mxCell>
        <mxCell id="PR9g5M-_RGSBmnKTxWqd-28" value="platform driver" style="shape=umlActor;verticalLabelPosition=bottom;verticalAlign=top;html=1;outlineConnect=0;" vertex="1" parent="i_sJm_hCALOnc1Xjkr22-1">
          <mxGeometry x="325" y="310" width="30" height="60" as="geometry" />
        </mxCell>
        <mxCell id="PR9g5M-_RGSBmnKTxWqd-29" value="" style="endArrow=classic;html=1;fontColor=#66B2FF;fillColor=#fa6800;strokeColor=#C73500;rounded=1;strokeWidth=3;" edge="1" parent="i_sJm_hCALOnc1Xjkr22-1">
          <mxGeometry width="50" height="50" relative="1" as="geometry">
            <mxPoint x="400" y="530" as="sourcePoint" />
            <mxPoint x="570" y="575" as="targetPoint" />
          </mxGeometry>
        </mxCell>
      </root>
    </mxGraphModel>
  </diagram>
</mxfile>
